<svg width="25" height="25" viewBox="0 0 25 25" fill="none" xmlns="http://www.w3.org/2000/svg">
<g opacity="0.3">
<g clip-path="url(#clip0)">
<path d="M13.9655 12.5069L24.682 1.79046C25.0956 1.391 25.107 0.731908 24.7076 0.318297C24.3081 -0.0953132 23.649 -0.106782 23.2354 0.292675C23.2268 0.301033 23.2182 0.309574 23.2098 0.318297L12.4933 11.0348L1.77677 0.318236C1.36316 -0.0812211 0.704068 -0.0697523 0.304611 0.343858C-0.0850862 0.747342 -0.0850862 1.38697 0.304611 1.79046L11.0211 12.5069L0.304611 23.2234C-0.101862 23.6299 -0.101862 24.289 0.304611 24.6956C0.711145 25.102 1.37024 25.102 1.77677 24.6956L12.4933 13.9791L23.2097 24.6956C23.6233 25.095 24.2824 25.0836 24.6819 24.6699C25.0715 24.2665 25.0715 23.6268 24.6819 23.2234L13.9655 12.5069Z" fill="white"/>
</g>
</g>
<defs>
<clipPath id="clip0">
<rect width="25" height="25" fill="white"/>
</clipPath>
</defs>
</svg>
