<svg width="21" height="20" viewBox="0 0 21 20" fill="none" xmlns="http://www.w3.org/2000/svg">
<g clip-path="url(#clip0)">
<path d="M14.5971 0H6.6369C3.35331 0 0.666748 2.7 0.666748 6V14C0.666748 17.3 3.25381 20 6.6369 20H14.6966C17.9802 20 20.6667 17.4 20.6667 14V6C20.5672 2.7 17.9802 0 14.5971 0ZM18.5772 14C18.5772 16.2 16.7861 18 14.5971 18H6.6369C4.44784 18 2.6568 16.2 2.6568 14V6C2.6568 3.8 4.44784 2 6.6369 2H14.6966C16.8857 2 18.6767 3.8 18.6767 6V14H18.5772ZM10.617 4.8C7.73142 4.8 5.54236 7.1 5.54236 10C5.54236 12.8 7.83092 15.1 10.617 15.1C13.5026 15.1 15.6916 12.8 15.6916 10C15.6916 7.1 13.5026 4.8 10.617 4.8ZM10.617 13.2C8.82595 13.2 7.53241 11.8 7.53241 10C7.53241 8.2 8.92545 6.9 10.617 6.9C12.3085 6.9 13.7016 8.3 13.7016 10C13.7016 11.8 12.408 13.2 10.617 13.2ZM15.7911 3.7C16.4877 3.7 16.9851 4.3 16.9851 4.9C16.9851 5.6 16.3881 6.1 15.7911 6.1C15.0946 6.1 14.5971 5.5 14.5971 4.9C14.4976 4.2 15.0946 3.7 15.7911 3.7Z" fill="#4891FF"/>
</g>
<defs>
<clipPath id="clip0">
<rect x="0.666748" width="20" height="20" fill="white"/>
</clipPath>
</defs>
</svg>
