<svg width="80" height="23" viewBox="0 0 80 23" fill="none" xmlns="http://www.w3.org/2000/svg">
<path d="M3.112 22.384C2.55733 22.384 2.09867 22.3627 1.736 22.32C1.37333 22.2773 1.02133 22.192 0.68 22.064L1.512 17.84C1.66133 17.8827 1.8 17.9147 1.928 17.936C2.07733 17.9573 2.23733 17.968 2.408 17.968C2.664 17.968 2.90933 17.9253 3.144 17.84C3.37867 17.7333 3.60267 17.5093 3.816 17.168C4.02933 16.8053 4.24267 16.304 4.456 15.664C4.69067 15.0027 4.92533 14.1067 5.16 12.976C5.58667 11.0347 5.98133 9.08267 6.344 7.12C6.70667 5.15733 7.06933 3.16267 7.432 1.136H19.592V22H14.856V5.104H11.048C10.792 6.576 10.536 7.99467 10.28 9.36C10.024 10.7253 9.768 12.1013 9.512 13.488C9.17067 15.2373 8.79733 16.688 8.392 17.84C8.008 18.992 7.56 19.9093 7.048 20.592C6.536 21.2533 5.96 21.7227 5.32 22C4.68 22.256 3.944 22.384 3.112 22.384ZM32.9753 22.384C31.5673 22.384 30.2766 22.1387 29.1033 21.648C27.9513 21.136 26.9593 20.4107 26.1273 19.472C25.2953 18.5333 24.6446 17.392 24.1753 16.048C23.7273 14.704 23.5033 13.1787 23.5033 11.472C23.5033 9.76533 23.7273 8.25067 24.1753 6.928C24.6446 5.584 25.2953 4.464 26.1273 3.568C26.9593 2.65067 27.9513 1.95733 29.1033 1.488C30.2766 0.997332 31.5673 0.751999 32.9753 0.751999C34.3833 0.751999 35.6633 0.997332 36.8153 1.488C37.9886 1.95733 38.9913 2.65067 39.8233 3.568C40.6553 4.48533 41.2953 5.616 41.7433 6.96C42.2126 8.28267 42.4473 9.78667 42.4473 11.472C42.4473 13.1787 42.2126 14.704 41.7433 16.048C41.2953 17.392 40.6553 18.5333 39.8233 19.472C38.9913 20.4107 37.9886 21.136 36.8153 21.648C35.6633 22.1387 34.3833 22.384 32.9753 22.384ZM32.9753 18.32C34.4046 18.32 35.5353 17.712 36.3673 16.496C37.1993 15.2587 37.6153 13.584 37.6153 11.472C37.6153 9.38133 37.1993 7.74933 36.3673 6.576C35.5353 5.40267 34.4046 4.816 32.9753 4.816C31.5459 4.816 30.4153 5.40267 29.5833 6.576C28.7513 7.74933 28.3353 9.38133 28.3353 11.472C28.3353 13.584 28.7513 15.2587 29.5833 16.496C30.4153 17.712 31.5459 18.32 32.9753 18.32ZM46.3703 22V1.136H59.5223V5.104H51.0743V22H46.3703ZM70.5065 22.384C69.0985 22.384 67.8078 22.1387 66.6345 21.648C65.4825 21.136 64.4905 20.4107 63.6585 19.472C62.8265 18.5333 62.1758 17.392 61.7065 16.048C61.2585 14.704 61.0345 13.1787 61.0345 11.472C61.0345 9.76533 61.2585 8.25067 61.7065 6.928C62.1758 5.584 62.8265 4.464 63.6585 3.568C64.4905 2.65067 65.4825 1.95733 66.6345 1.488C67.8078 0.997332 69.0985 0.751999 70.5065 0.751999C71.9145 0.751999 73.1945 0.997332 74.3465 1.488C75.5198 1.95733 76.5225 2.65067 77.3545 3.568C78.1865 4.48533 78.8265 5.616 79.2745 6.96C79.7438 8.28267 79.9785 9.78667 79.9785 11.472C79.9785 13.1787 79.7438 14.704 79.2745 16.048C78.8265 17.392 78.1865 18.5333 77.3545 19.472C76.5225 20.4107 75.5198 21.136 74.3465 21.648C73.1945 22.1387 71.9145 22.384 70.5065 22.384ZM70.5065 18.32C71.9358 18.32 73.0665 17.712 73.8985 16.496C74.7305 15.2587 75.1465 13.584 75.1465 11.472C75.1465 9.38133 74.7305 7.74933 73.8985 6.576C73.0665 5.40267 71.9358 4.816 70.5065 4.816C69.0772 4.816 67.9465 5.40267 67.1145 6.576C66.2825 7.74933 65.8665 9.38133 65.8665 11.472C65.8665 13.584 66.2825 15.2587 67.1145 16.496C67.9465 17.712 69.0772 18.32 70.5065 18.32Z" fill="white"/>
</svg>
