<svg width="100" height="100" viewBox="0 0 100 100" fill="none" xmlns="http://www.w3.org/2000/svg">
<g clip-path="url(#clip0)">
<path d="M16.9782 40.9682C17.314 41.4783 17.9018 41.764 18.5103 41.7127C19.1189 41.6614 19.6506 41.2814 19.8963 40.7222C20.1419 40.1631 20.0621 39.5144 19.6882 39.0316L16.2149 34.1666L19.6882 29.3016C20.0621 28.8187 20.1419 28.17 19.8963 27.6109C19.6506 27.0518 19.1189 26.6718 18.5103 26.6205C17.9018 26.5692 17.314 26.8548 16.9782 27.3649L14.1665 31.2999L11.3549 27.3649C11.0191 26.8548 10.4312 26.5692 9.8227 26.6205C9.21417 26.6718 8.68242 27.0518 8.43679 27.6109C8.19116 28.17 8.27099 28.8187 8.64486 29.3016L12.1182 34.1666L8.64486 39.0316C8.27099 39.5144 8.19116 40.1631 8.43679 40.7222C8.68242 41.2814 9.21417 41.6614 9.8227 41.7127C10.4312 41.764 11.0191 41.4783 11.3549 40.9682L14.1665 37.0332L16.9782 40.9682Z" fill="#4891FF"/>
<path d="M16.6665 48.3333C16.6665 47.4128 15.9203 46.6666 14.9999 46.6666C14.0794 46.6666 13.3332 47.4128 13.3332 48.3333V51.6666C13.3332 52.5871 14.0794 53.3333 14.9999 53.3333C15.9203 53.3333 16.6665 52.5871 16.6665 51.6666V48.3333Z" fill="#4891FF"/>
<path d="M16.6665 58.3333C16.6665 57.4128 15.9203 56.6666 14.9999 56.6666C14.0794 56.6666 13.3332 57.4128 13.3332 58.3333V61.6666C13.3332 62.5871 14.0794 63.3333 14.9999 63.3333C15.9203 63.3333 16.6665 62.5871 16.6665 61.6666V58.3333Z" fill="#4891FF"/>
<path d="M14.9999 66.6666C14.0794 66.6666 13.3332 67.4128 13.3332 68.3333V71.6666C13.3332 72.5871 14.0794 73.3333 14.9999 73.3333C15.9203 73.3333 16.6665 72.5871 16.6665 71.6666V68.3333C16.6665 67.4128 15.9203 66.6666 14.9999 66.6666Z" fill="#4891FF"/>
<path d="M17.8065 79.0316L16.6665 79.4116V78.3333C16.6665 77.4128 15.9203 76.6666 14.9999 76.6666C14.0794 76.6666 13.3332 77.4128 13.3332 78.3333V81.6666C13.3332 82.5871 14.0794 83.3333 14.9999 83.3333H15.1665C15.3455 83.3334 15.5233 83.3047 15.6932 83.2483L18.8599 82.1933C19.7343 81.9024 20.2074 80.9577 19.9165 80.0833C19.6257 79.2088 18.681 78.7357 17.8065 79.0266V79.0316Z" fill="#4891FF"/>
<path d="M27.6349 75.6983L24.4682 76.7516C23.5937 77.0425 23.1207 77.9871 23.4115 78.8616C23.7024 79.736 24.6471 80.2091 25.5215 79.9183L28.6882 78.8633C29.5626 78.5719 30.0354 77.6269 29.744 76.7524C29.4527 75.878 28.5076 75.4053 27.6332 75.6966L27.6349 75.6983Z" fill="#4891FF"/>
<path d="M41.2149 79.1665L44.6882 74.3015C45.062 73.8187 45.1419 73.17 44.8963 72.6109C44.6506 72.0517 44.1189 71.6717 43.5103 71.6204C42.9018 71.5691 42.3139 71.8548 41.9782 72.3649L39.1665 76.2999L36.3549 72.3649C36.0191 71.8548 35.4312 71.5691 34.8227 71.6204C34.2142 71.6717 33.6824 72.0517 33.4368 72.6109C33.1912 73.17 33.271 73.8187 33.6449 74.3015L37.1182 79.1665L33.6449 84.0315C33.271 84.5144 33.1912 85.1631 33.4368 85.7222C33.6824 86.2813 34.2142 86.6613 34.8227 86.7126C35.4312 86.7639 36.0191 86.4783 36.3549 85.9682L39.1665 82.0332L41.9782 85.9682C42.3139 86.4783 42.9018 86.7639 43.5103 86.7126C44.1189 86.6613 44.6506 86.2813 44.8963 85.7222C45.1419 85.1631 45.062 84.5144 44.6882 84.0315L41.2149 79.1665Z" fill="#4891FF"/>
<path d="M38.3332 48.3332C39.2537 48.3332 39.9999 47.587 39.9999 46.6665V43.3332C39.9999 42.4127 39.2537 41.6665 38.3332 41.6665C37.4127 41.6665 36.6665 42.4127 36.6665 43.3332V46.6665C36.6665 47.587 37.4127 48.3332 38.3332 48.3332Z" fill="#4891FF"/>
<path d="M38.3332 58.3332C39.2537 58.3332 39.9999 57.5871 39.9999 56.6666V53.3332C39.9999 52.4128 39.2537 51.6666 38.3332 51.6666C37.4127 51.6666 36.6665 52.4128 36.6665 53.3332V56.6666C36.6665 57.5871 37.4127 58.3332 38.3332 58.3332Z" fill="#4891FF"/>
<path d="M38.3332 68.3333C39.2537 68.3333 39.9999 67.5871 39.9999 66.6666V63.3333C39.9999 62.4128 39.2537 61.6666 38.3332 61.6666C37.4127 61.6666 36.6665 62.4128 36.6665 63.3333V66.6666C36.6665 67.5871 37.4127 68.3333 38.3332 68.3333Z" fill="#4891FF"/>
<path d="M38.3332 38.3332C39.2537 38.3332 39.9999 37.587 39.9999 36.6666V35.5882L41.1399 35.9682C42.0143 36.2591 42.959 35.786 43.2499 34.9116C43.5407 34.0371 43.0676 33.0924 42.1932 32.8016L39.0265 31.7466C38.8564 31.6918 38.6786 31.6648 38.4999 31.6666H38.3332C37.4127 31.6666 36.6665 32.4128 36.6665 33.3332V36.6666C36.6665 37.587 37.4127 38.3332 38.3332 38.3332Z" fill="#4891FF"/>
<path d="M72.4134 33.3333C77.8168 33.3819 82.7154 30.1644 84.817 25.1861C86.9186 20.2078 85.8076 14.4533 82.004 10.6151C78.2003 6.77687 72.4561 5.61395 67.459 7.67047C62.4619 9.72699 59.2002 14.5962 59.2 19.9999C59.176 27.3269 65.0865 33.291 72.4134 33.3333ZM72.4134 9.99993C76.4685 9.95126 80.1516 12.3566 81.7373 16.0892C83.323 19.8218 82.4973 24.1426 79.647 27.0275C76.7967 29.9124 72.4863 30.7902 68.7348 29.2497C64.9833 27.7091 62.5336 24.0554 62.5334 19.9999C62.5066 14.5128 66.9263 10.0394 72.4134 9.99993Z" fill="#4891FF"/>
<path d="M97.695 21.8133L92.5283 20.1466C92.5161 13.0013 88.6929 6.40525 82.4987 2.84316C76.3046 -0.718922 68.6806 -0.705898 62.4987 2.87733C56.3168 6.46056 52.5161 13.0696 52.5283 20.2149C52.5283 20.4666 52.55 20.7149 52.555 20.9666L50 21.9849L29.5317 13.8066C28.8046 13.5146 27.998 13.4881 27.2533 13.7316L2.315 21.8116C0.939987 22.2588 0.00675682 23.5374 0 24.9833V96.1666C0.00113235 97.233 0.512407 98.2344 1.37546 98.8608C2.2385 99.4872 3.34914 99.6628 4.36333 99.3333L28.2833 91.5966L48.7983 99.7783C49.1795 99.9205 49.5831 99.9933 49.99 99.9933C50.4148 99.9925 50.836 99.9152 51.2333 99.7649L71.7183 91.5849L95.6383 99.3333C96.6523 99.6621 97.7624 99.4862 98.625 98.8599C99.4876 98.2336 99.9987 97.2326 100 96.1666V24.9833C99.9939 23.5406 99.0655 22.2638 97.695 21.8133ZM57.345 13.2733C60.5851 6.10622 68.3947 2.17994 76.0798 3.85432C83.7649 5.5287 89.2334 12.3479 89.1983 20.2133C89.1444 26.9078 87.1959 33.4501 83.5783 39.0833C83.4833 39.2499 83.38 39.4033 83.2766 39.5583L83.1667 39.7249C80.2785 44.1302 76.6855 48.0306 72.5317 51.2699C68.3734 48.0271 64.777 44.1222 61.8867 39.7116L61.785 39.5616C61.6817 39.4066 61.5783 39.2533 61.4517 39.0383C57.8509 33.417 55.9136 26.892 55.8633 20.2166C55.8539 17.8227 56.3592 15.4548 57.345 13.2733ZM65.94 49.9116C67.6875 51.6734 69.5834 53.2816 71.6067 54.7183C72.1686 55.0956 72.903 55.0956 73.465 54.7183C75.4769 53.289 77.3612 51.688 79.0967 49.9333C80.4923 50.5349 81.4685 51.8264 81.6667 53.3333C81.6667 55.6983 77.9017 58.3333 72.5 58.3333C67.0983 58.3333 63.3333 55.6983 63.3333 53.3333C63.5422 51.8146 64.5313 50.5162 65.94 49.9116ZM96.6666 96.1666L72.7383 88.4116C71.9991 88.1785 71.2017 88.2103 70.4833 88.5016L50 96.6666L29.5317 88.4999C28.8064 88.2036 28.0001 88.1712 27.2533 88.4083L3.33333 96.1666V24.9849L28.2833 16.8983L48.7433 25.0649C49.5418 25.4024 50.4422 25.406 51.2433 25.0749L52.8067 24.4499C53.5067 30.2411 55.4855 35.8042 58.6 40.7366C58.735 40.9699 58.8767 41.1849 59.1 41.5266C60.4541 43.6095 61.9634 45.5873 63.615 47.4433C61.494 48.6715 60.1348 50.886 60 53.3333C60 57.9999 65.49 61.6666 72.5 61.6666C79.51 61.6666 85 57.9999 85 53.3333C84.8719 50.9001 83.5258 48.6955 81.42 47.4699C83.1127 45.5694 84.6593 43.5436 86.0466 41.4099C86.1933 41.1916 86.335 40.9766 86.44 40.7916C89.7317 35.6012 91.7584 29.7102 92.3567 23.5933L96.6666 24.9833V96.1666Z" fill="#4891FF"/>
<path d="M50 69.9999C49.0796 69.9999 48.3334 70.7461 48.3334 71.6666V89.9999C48.3334 90.9204 49.0796 91.6666 50 91.6666C50.9205 91.6666 51.6667 90.9204 51.6667 89.9999V71.6666C51.6667 70.7461 50.9205 69.9999 50 69.9999Z" fill="#4891FF"/>
<path d="M50 30C49.0796 30 48.3334 30.7462 48.3334 31.6667V65C48.3334 65.9205 49.0796 66.6667 50 66.6667C50.9205 66.6667 51.6667 65.9205 51.6667 65V31.6667C51.6667 30.7462 50.9205 30 50 30Z" fill="#4891FF"/>
<path d="M71.6667 66.6666C70.7462 66.6666 70 67.4128 70 68.3333V81.6666C70 82.587 70.7462 83.3332 71.6667 83.3332C72.5871 83.3332 73.3333 82.587 73.3333 81.6666V68.3333C73.3333 67.4128 72.5871 66.6666 71.6667 66.6666Z" fill="#4891FF"/>
<path d="M28.3333 44.9999C27.4128 44.9999 26.6666 45.7461 26.6666 46.6666V81.6666C26.6666 82.5871 27.4128 83.3333 28.3333 83.3333C29.2538 83.3333 30 82.5871 30 81.6666V46.6666C30 45.7461 29.2538 44.9999 28.3333 44.9999Z" fill="#4891FF"/>
<path d="M28.3333 21.6666C27.4128 21.6666 26.6666 22.4128 26.6666 23.3333V39.9999C26.6666 40.9204 27.4128 41.6666 28.3333 41.6666C29.2538 41.6666 30 40.9204 30 39.9999V23.3333C30 22.4128 29.2538 21.6666 28.3333 21.6666Z" fill="#4891FF"/>
</g>
<defs>
<clipPath id="clip0">
<rect width="100" height="100" fill="white"/>
</clipPath>
</defs>
</svg>
