<svg width="100" height="100" viewBox="0 0 100 100" fill="none" xmlns="http://www.w3.org/2000/svg">
<g clip-path="url(#clip0)">
<path d="M38.9979 85.2793C38.6831 84.5114 37.8815 84.0188 37.0548 84.0786C36.2315 84.1381 35.5233 84.7241 35.3085 85.5204C35.0999 86.2934 35.4019 87.1477 36.0562 87.6123C36.7343 88.0938 37.6521 88.0936 38.3302 87.6123C39.0589 87.0952 39.3413 86.1034 38.9979 85.2793Z" fill="#4891FF"/>
<path d="M92.1844 0H58.995C58.9705 0 58.9463 0.000585938 58.9223 0.0015625C58.868 0.000585938 58.8135 0 58.759 0H15.5575C10.2116 0 5.86255 4.34922 5.86255 9.69492V90.3051C5.86255 95.651 10.2118 100 15.5577 100H58.759C64.1047 100 68.4539 95.6508 68.4539 90.3051V36.4355L73.8678 32.4389H92.1846C93.2631 32.4389 94.1377 31.5645 94.1377 30.4857V1.95312C94.1375 0.874414 93.2631 0 92.1844 0V0ZM9.7688 9.69492C9.7688 6.50293 12.3657 3.90625 15.5575 3.90625H57.0416V10.0684H9.7688V9.69492ZM58.759 96.0938H15.5575C12.3655 96.0938 9.7686 93.4971 9.7686 90.3051V87.9785H28.3288C29.4073 87.9785 30.2819 87.1041 30.2819 86.0254C30.2819 84.9467 29.4073 84.0723 28.3288 84.0723H9.7688V13.9746H57.0418V30.4857C57.0418 31.5645 57.9164 32.4389 58.995 32.4389H64.0877L64.5553 35.2287C64.5502 35.2859 64.5475 35.3438 64.5475 35.4023V84.0723H45.9875C44.909 84.0723 44.0344 84.9467 44.0344 86.0254C44.0344 87.1041 44.909 87.9785 45.9875 87.9785H64.5475V90.3051C64.5475 93.4971 61.9508 96.0938 58.759 96.0938ZM90.2313 28.5326H73.2248C72.8073 28.5326 72.4008 28.6664 72.0649 28.9145L67.9651 31.9412L67.667 30.1631C67.5092 29.2223 66.6948 28.5328 65.7409 28.5328H60.9483V3.90625H90.2317V28.5326H90.2313Z" fill="#4891FF"/>
<path d="M70.8701 24.3115C71.5053 24.6631 72.2072 24.8377 72.9084 24.8377C73.6857 24.8377 74.4621 24.6227 75.1441 24.1953L82.0066 19.8941C83.2426 19.1195 83.9805 17.7861 83.9805 16.3275C83.9805 14.8689 83.2426 13.5356 82.0066 12.7609L75.1441 8.45977C73.8471 7.64707 72.2098 7.60235 70.8701 8.34375C69.5311 9.08477 68.6992 10.4961 68.6992 12.0266V20.6287C68.6992 22.1592 69.5311 23.5705 70.8701 24.3115ZM72.6055 12.0266C72.6055 11.9824 72.6055 11.8479 72.7619 11.7613C72.8176 11.7305 72.8682 11.7197 72.9117 11.7197C72.99 11.7197 73.0459 11.7547 73.0699 11.7697L79.9324 16.0709C80.0265 16.1301 80.0746 16.2164 80.0746 16.3277C80.0746 16.4391 80.0267 16.5254 79.9324 16.5846L73.0699 20.8856C73.0326 20.909 72.9185 20.9807 72.7621 20.894C72.6057 20.8074 72.6057 20.6729 72.6057 20.6287V12.0266H72.6055Z" fill="#4891FF"/>
<path d="M54.0527 63.7828V60.5387C54.0777 60.5391 54.0917 60.5391 54.0933 60.5391C55.7687 60.5391 57.371 59.823 58.49 58.5748C59.6087 57.3268 60.1446 55.6498 59.9607 53.9736C59.7952 52.4666 59.0605 51.1322 57.9786 50.1865V43.0459C57.9786 40.1953 56.8433 36.0355 55.1532 32.6953C52.8888 28.2191 50.1032 25.8531 47.0976 25.8531C46.123 25.8531 45.2974 26.5719 45.1632 27.5373L45.02 28.5668C44.4327 28.7937 42.5476 29.2674 37.2761 29.081C33.6638 28.9535 30.331 28.5785 30.2978 28.5748C30.2247 28.5666 30.1511 28.5623 30.0775 28.5623C22.5411 28.5623 16.4099 34.6935 16.4099 42.2299V50.1865C15.3275 51.1326 14.5925 52.4678 14.4277 53.9756C14.2443 55.6514 14.7806 57.3281 15.8992 58.5758C17.0179 59.8236 18.6202 60.5394 20.2952 60.5394C20.2968 60.5394 20.3109 60.5394 20.3359 60.5391V63.7832C20.3359 66.0785 21.4562 69.4351 26.7935 72.3892C28.4552 73.309 30.1066 73.958 31.2365 74.3506V77.1406C31.2365 78.2193 32.1111 79.0937 33.1896 79.0937H41.1995C42.278 79.0937 43.1527 78.2193 43.1527 77.1406V74.3506C44.2825 73.958 45.9339 73.309 47.5956 72.3892C52.9323 69.4346 54.0527 66.0781 54.0527 63.7828ZM52.6378 56.5377C52.6489 56.5408 52.6591 56.5439 52.6685 56.5467C52.6583 56.5437 52.6482 56.5406 52.6378 56.5377ZM29.9738 32.4689C30.6906 32.5473 34.4329 32.9394 38.2837 33.0166C43.0343 33.1135 47.5134 32.835 48.6032 30.3672C49.6185 31.1246 50.7046 32.5549 51.6677 34.4588C53.0835 37.2574 54.0724 40.7885 54.0724 43.0459V47.3234C53.7581 47.0998 53.3749 46.9668 52.9609 46.9627C51.8128 46.8162 47.9849 43.5975 44.7544 40.0605C44.0984 39.3426 43.0142 39.2162 42.2113 39.7643C34.7199 44.8769 28.9468 46.9625 22.2853 46.9625H21.4474C21.0257 46.9625 20.6353 47.0961 20.3161 47.3234V42.2297C20.316 36.8818 24.6388 32.5246 29.9738 32.4689ZM21.7197 56.5469C21.729 56.5441 21.7392 56.541 21.7501 56.5379C21.74 56.5406 21.7298 56.5437 21.7197 56.5469ZM40.6923 71.0346C39.839 71.2639 39.246 72.0373 39.246 72.9207V75.1871H35.1423V72.9207C35.1423 72.0387 34.5493 71.2656 33.698 71.035C31.2447 70.3703 24.2417 67.6111 24.2417 63.7828V58.4152C24.2417 57.7965 23.9484 57.2142 23.4511 56.8459C22.9681 56.4881 22.3482 56.373 21.7706 56.532C21.5204 56.5785 20.6679 56.633 20.2947 56.633C19.7199 56.633 19.1915 56.3969 18.807 55.9682C18.4228 55.5396 18.2464 54.983 18.3101 54.4006C18.4111 53.4787 19.1859 52.7234 20.1126 52.6434C20.3759 52.6205 20.6331 52.6471 20.8781 52.7215C21.4704 52.9019 22.1124 52.7906 22.6095 52.4225C23.1068 52.0541 23.3999 51.4719 23.3999 50.8531V50.8498C31.4554 50.5734 37.805 47.3365 43.0288 43.9168C43.7368 44.6441 44.7095 45.6127 45.7786 46.5889C48.1808 48.7824 49.8142 49.8701 50.9876 50.3975V50.8529C50.9876 51.4717 51.2808 52.0539 51.778 52.4223C52.2753 52.7906 52.9177 52.9017 53.5095 52.7215C53.7544 52.6469 54.0114 52.6203 54.2749 52.6432C55.2013 52.7228 55.9761 53.4779 56.0775 54.3998C56.1413 54.9822 55.965 55.5391 55.5808 55.9676C55.1964 56.3965 54.6681 56.6328 54.0931 56.6328C53.72 56.6328 52.8675 56.5785 52.6171 56.5318C52.0394 56.3726 51.4193 56.4879 50.9366 56.8457C50.4394 57.2141 50.146 57.7963 50.146 58.415V63.7826C50.1464 67.6111 43.1435 70.3703 40.6923 71.0346Z" fill="#4891FF"/>
<path d="M33.0291 56.2656C33.0291 55.1869 32.1544 54.3125 31.0759 54.3125C29.9974 54.3125 29.1228 55.1869 29.1228 56.2656V56.7799C29.1228 57.8586 29.9974 58.733 31.0759 58.733C32.1544 58.733 33.0291 57.8586 33.0291 56.7799V56.2656Z" fill="#4891FF"/>
<path d="M43.312 54.3125C42.2335 54.3125 41.3589 55.1869 41.3589 56.2656V56.7799C41.3589 57.8586 42.2335 58.733 43.312 58.733C44.3905 58.733 45.2651 57.8586 45.2651 56.7799V56.2656C45.2651 55.1869 44.3905 54.3125 43.312 54.3125Z" fill="#4891FF"/>
<path d="M38.3745 63.0551C38.0591 63.3707 37.6398 63.5443 37.1939 63.5443C36.7481 63.5443 36.3288 63.3705 36.0134 63.0551C35.2507 62.2922 34.0142 62.2918 33.2513 63.0547C32.4884 63.8172 32.4882 65.0539 33.2507 65.8168C34.304 66.8705 35.7044 67.4508 37.1937 67.4508C38.6833 67.4508 40.0837 66.8705 41.1368 65.8168C41.8993 65.0539 41.8991 63.8172 41.1362 63.0547C40.3737 62.2918 39.1368 62.2924 38.3745 63.0551Z" fill="#4891FF"/>
</g>
<defs>
<clipPath id="clip0">
<rect width="100" height="100" fill="white"/>
</clipPath>
</defs>
</svg>
