<svg width="100" height="100" viewBox="0 0 100 100" fill="none" xmlns="http://www.w3.org/2000/svg">
<g clip-path="url(#clip0)">
<path d="M49.9754 74.2105C49.3739 74.2105 48.8059 73.9334 48.4358 73.4592L27.7658 46.9779C27.7303 46.9326 27.6971 46.8859 27.6662 46.8381C23.5227 41.7375 21.2438 35.3172 21.2438 28.7314C21.2436 12.8891 34.1324 0 49.9752 0C65.818 0 78.7069 12.8891 78.7069 28.7316C78.7069 35.2988 76.4336 41.7164 72.3055 46.8105C72.2985 46.8199 72.2914 46.8291 72.2842 46.8385L51.5149 73.4588C51.1448 73.9332 50.577 74.2105 49.9754 74.2105ZM30.9854 44.7551L49.9748 69.0832L69.1578 44.4955C69.1805 44.4641 69.2039 44.4334 69.2287 44.4029C72.8221 39.9941 74.8012 34.4285 74.8012 28.7314C74.801 15.0426 63.6641 3.90586 49.9752 3.90586C36.2864 3.90586 25.1494 15.0426 25.1494 28.7316C25.1494 34.49 27.1655 40.1016 30.8264 44.5326C30.885 44.6037 30.9381 44.6781 30.9854 44.7551Z" fill="#4891FF"/>
<path d="M49.9752 46.7352C45.2805 46.7352 40.8666 44.9069 37.5469 41.5871C34.2272 38.2674 32.399 33.8537 32.399 29.159C32.399 24.4643 34.2274 20.0504 37.5469 16.7307C42.108 12.1695 48.7869 10.4742 54.9776 12.3067C56.0115 12.6127 56.602 13.6992 56.2957 14.7336C55.9897 15.7678 54.9035 16.3582 53.8688 16.0518C49.0524 14.626 43.8565 15.9445 40.3086 19.4926C37.7264 22.0746 36.3045 25.5076 36.3045 29.159C36.3045 32.8104 37.7264 36.2434 40.3084 38.8254C42.8906 41.4076 46.3235 42.8295 49.9748 42.8295C53.6264 42.8295 57.0592 41.4076 59.6412 38.8256C63.1856 35.2813 64.5053 30.0897 63.0856 25.277C62.7803 24.2426 63.3715 23.1565 64.4061 22.8512C65.4402 22.5461 66.5266 23.1371 66.8318 24.1717C68.6568 30.3574 66.96 37.0311 62.4033 41.5875C59.0836 44.9069 54.6699 46.7352 49.9752 46.7352Z" fill="#4891FF"/>
<path d="M61.057 20.0992C60.5572 20.0992 60.0574 19.9086 59.6762 19.5271L59.6416 19.4924C58.8789 18.7297 58.8789 17.4932 59.6416 16.7305C60.4043 15.9678 61.6408 15.9678 62.4035 16.7305L62.4381 16.7652C63.2008 17.5279 63.2008 18.7645 62.4381 19.5271C62.0566 19.9086 61.5566 20.0992 61.057 20.0992Z" fill="#4891FF"/>
<path d="M50 100C36.9111 100 24.5755 97.8213 15.2658 93.8654C5.42515 89.684 0.00561523 83.9195 0.00561523 77.6336C0.00561523 72.2408 3.91694 67.2812 11.3167 63.2908C18.0599 59.6545 27.5037 57.0326 37.9085 55.9076C38.9804 55.7908 39.9441 56.567 40.0601 57.6392C40.1761 58.7115 39.4007 59.6748 38.3285 59.7908C28.4144 60.8625 19.4798 63.3263 13.1708 66.7285C7.19976 69.9484 3.91148 73.8211 3.91148 77.6336C3.91148 82.1859 8.60659 86.7922 16.7933 90.2707C25.6312 94.026 37.4242 96.0942 50.0001 96.0942C62.5761 96.0942 74.3691 94.026 83.207 90.2707C91.3935 86.7922 96.0888 82.1861 96.0888 77.6336C96.0888 72.2498 89.6187 66.9062 78.7808 63.3398C77.7564 63.0025 77.1992 61.8988 77.5363 60.8742C77.8734 59.8496 78.9773 59.2931 80.0019 59.6297C92.7078 63.8109 99.9949 70.373 99.9949 77.6336C99.9949 83.9193 94.5754 89.684 84.7347 93.8654C75.4244 97.8213 63.0888 100 50 100Z" fill="#4891FF"/>
<path d="M70.6819 61.1562C70.5538 61.1562 70.4241 61.1435 70.2936 61.1173L70.2256 61.1037C69.1684 60.8904 68.4842 59.8605 68.6973 58.8031C68.9106 57.7458 69.9405 57.0617 70.9979 57.2748L71.0659 57.2884C72.1231 57.5017 72.8073 58.5316 72.5942 59.589C72.4071 60.5158 71.5924 61.1562 70.6819 61.1562Z" fill="#4891FF"/>
<path d="M33.3152 68.1615C32.4562 68.1615 31.6691 67.5904 31.4322 66.7218C31.1484 65.6814 31.7619 64.6078 32.8023 64.324C32.8457 64.3121 32.8924 64.3012 32.9363 64.2924C33.9939 64.0812 35.0228 64.767 35.2344 65.8244C35.4408 66.8558 34.7934 67.8601 33.7801 68.1052C33.6244 68.1433 33.4687 68.1615 33.3152 68.1615Z" fill="#4891FF"/>
<path d="M50 84.7563C35.2611 84.7563 20.3406 80.9158 20.3406 73.5758C20.3406 71.7223 21.3609 69.0139 26.222 66.6354C27.1908 66.1611 28.3605 66.5623 28.8345 67.5311C29.3085 68.4998 28.9076 69.6695 27.9388 70.1436C25.6269 71.2746 24.2466 72.5578 24.2466 73.5756C24.2466 74.6893 26.022 76.5811 31.0257 78.2475C36.065 79.9258 42.8037 80.8502 50.0002 80.8502C57.1966 80.8502 63.9351 79.926 68.9746 78.2475C73.9783 76.5811 75.7537 74.6893 75.7537 73.5756C75.7537 71.2672 68.9625 67.5377 56.2115 66.5397C55.1363 66.4555 54.3328 65.5156 54.4169 64.4402C54.5011 63.365 55.4398 62.5627 56.5164 62.6457C67.1925 63.4814 79.6597 66.8453 79.6597 73.5756C79.6593 80.9158 64.7388 84.7563 50 84.7563Z" fill="#4891FF"/>
</g>
<defs>
<clipPath id="clip0">
<rect width="100" height="100" fill="white"/>
</clipPath>
</defs>
</svg>
