<svg width="100" height="100" viewBox="0 0 100 100" fill="none" xmlns="http://www.w3.org/2000/svg">
<path d="M96.9066 82.1198H94.4777V38.1224C97.8755 34.9187 100 30.3788 100 25.3515C100 15.6705 92.1239 7.79437 82.4428 7.79437C78.3446 7.79437 74.356 9.23677 71.2117 11.8559C70.5896 12.3742 70.5054 13.2989 71.0237 13.921C71.5419 14.5431 72.4665 14.6273 73.0887 14.109C75.7071 11.928 79.029 10.7267 82.4428 10.7267C90.5069 10.7267 97.0675 17.2873 97.0675 25.3513C97.0675 33.4153 90.5069 39.9759 82.4428 39.9759C74.3788 39.9759 67.8182 33.4153 67.8182 25.3513C67.8182 23.1251 68.305 20.9885 69.2651 19.0005C69.6172 18.2713 69.3115 17.3946 68.5824 17.0423C67.8524 16.6897 66.9766 16.9958 66.6243 17.725C65.4706 20.1142 64.8855 22.68 64.8855 25.3513C64.8855 25.7001 64.8969 26.0461 64.917 26.39H56.1869V8.03444C56.1869 5.74415 54.3236 3.88103 52.0333 3.88103H26.1365C23.8462 3.88103 21.9829 5.74415 21.9829 8.03444V26.39H9.55842C7.33851 26.39 5.53228 28.196 5.53228 30.4161V65.0047C5.53228 65.8147 6.18877 66.471 6.99854 66.471C7.8083 66.471 8.46479 65.8147 8.46479 65.0047V30.4161C8.46479 29.8132 8.9553 29.3225 9.55842 29.3225H21.9831V33.6284H15.8803C13.7783 33.6284 12.0681 35.3387 12.0681 37.4407V74.0077C12.0681 76.1097 13.7783 77.82 15.8803 77.82H84.1298C86.2318 77.82 87.9421 76.1097 87.9421 74.0077V42.0256C89.213 41.6052 90.4206 41.0445 91.5454 40.3599V82.1198H8.46479V71.7739C8.46479 70.964 7.8083 70.3077 6.99854 70.3077C6.18877 70.3077 5.53228 70.964 5.53228 71.7739V82.1198H3.06447C1.37476 82.1198 0 83.4946 0 85.1843V89.6804C0 93.2305 2.88813 96.1189 6.43843 96.1189H93.5328C97.0829 96.1189 99.9713 93.2307 99.9713 89.6804V85.1843C99.9711 83.4946 98.5965 82.1198 96.9066 82.1198ZM56.1869 29.3225H65.3389C65.6918 30.8425 66.2431 32.2873 66.9633 33.6284H56.1869V29.3225ZM45.883 6.81354L45.4488 8.73082C45.4267 8.82876 45.3411 8.89719 45.2408 8.89719H32.929C32.8287 8.89719 32.743 8.82876 32.721 8.73082L32.2868 6.81354H45.883ZM24.9154 8.03444C24.9154 7.36134 25.4632 6.81354 26.1365 6.81354H29.2798L29.8606 9.37832C30.1873 10.8215 31.449 11.8295 32.9288 11.8295H45.2406C46.7202 11.8295 47.9819 10.8217 48.3088 9.37832L48.8897 6.81354H52.0331C52.7064 6.81354 53.2542 7.36134 53.2542 8.03444V47.4339H24.9154V8.03444ZM24.9154 50.3666H53.2544V55.2584C53.2544 55.9315 52.7066 56.4793 52.0333 56.4793H26.1365C25.4632 56.4793 24.9154 55.9315 24.9154 55.2584V50.3666ZM85.0096 74.0077C85.0096 74.4928 84.6149 74.8875 84.1298 74.8875H15.8803C15.3953 74.8875 15.0006 74.4928 15.0006 74.0077V37.4407C15.0006 36.9556 15.3953 36.5609 15.8803 36.5609H21.9829V55.2584C21.9829 57.5487 23.8462 59.4118 26.1365 59.4118H52.0333C54.3236 59.4118 56.1869 57.5487 56.1869 55.2584V36.5609H68.9408C72.1638 40.4365 77.0201 42.9084 82.4428 42.9084C83.3146 42.9084 84.1713 42.8435 85.0094 42.7204V74.0077H85.0096ZM45.1501 85.0586H54.8211V87.3332H45.1501V85.0586ZM97.0386 89.6804C97.0386 91.6135 95.4657 93.1863 93.5326 93.1863H6.43843C4.50531 93.1863 2.93251 91.6135 2.93251 89.6804V85.1843C2.93251 85.1114 2.99175 85.0522 3.06447 85.0522L42.2176 85.0584V87.5602C42.2176 89.0519 43.4313 90.2656 44.9227 90.2656H55.0481C56.5398 90.2656 57.7535 89.0519 57.7535 87.5602V85.0584L96.9066 85.0522C96.9793 85.0522 97.0386 85.1114 97.0386 85.1843V89.6804Z" fill="#4891FF"/>
<path d="M77.7285 33.5559C78.3076 34.1348 79.0679 34.4241 79.8284 34.4241C80.5889 34.4241 81.3494 34.1348 81.9281 33.5559L92.0092 23.4753C93.653 21.8313 93.653 19.1563 92.009 17.5121C90.3653 15.8683 87.6898 15.8685 86.0461 17.5121C86.0461 17.5121 86.0461 17.5121 86.0459 17.5121L79.8288 23.7298L78.8395 22.7408C78.0433 21.9443 76.9844 21.5056 75.858 21.5056C74.7317 21.5056 73.6729 21.9443 72.8766 22.7406C72.0801 23.5369 71.6416 24.5957 71.6416 25.7222C71.6416 26.8484 72.0801 27.9073 72.8764 28.7037L77.7285 33.5559ZM74.9501 24.8143C75.1925 24.5716 75.5151 24.4379 75.858 24.4379C76.2011 24.4379 76.5233 24.5716 76.7661 24.8143L78.6798 26.728C79.3132 27.3614 80.3443 27.3614 80.9777 26.728L88.1198 19.5858C88.6208 19.0851 89.4353 19.0853 89.9358 19.5856C90.4364 20.0865 90.4364 20.9011 89.936 21.4016L79.8548 31.4822C79.8407 31.4967 79.8167 31.4967 79.8024 31.4822L74.9503 26.6301C74.7076 26.3876 74.5741 26.0651 74.5741 25.7222C74.5741 25.3791 74.7074 25.0569 74.9501 24.8143Z" fill="#4891FF"/>
<path d="M31.6262 32.3436C32.8563 32.1442 33.6919 30.9853 33.4925 29.7552C33.2931 28.5251 32.1342 27.6895 30.9041 27.8889C29.674 28.0883 28.8384 29.2472 29.0378 30.4773C29.2372 31.7074 30.3961 32.543 31.6262 32.3436Z" fill="#4891FF"/>
<path d="M41.186 30.9821C41.6633 29.8305 41.1167 28.51 39.9651 28.0327C38.8135 27.5553 37.493 28.1019 37.0157 29.2535C36.5383 30.4051 37.0849 31.7256 38.2365 32.203C39.3881 32.6803 40.7086 32.1337 41.186 30.9821Z" fill="#4891FF"/>
<path d="M46.8966 32.3698C48.1429 32.3698 49.1532 31.3594 49.1532 30.1131C49.1532 28.8668 48.1429 27.8564 46.8966 27.8564C45.6502 27.8564 44.6399 28.8668 44.6399 30.1131C44.6399 31.3594 45.6502 32.3698 46.8966 32.3698Z" fill="#4891FF"/>
</svg>
