<svg width="21" height="20" viewBox="0 0 21 20" fill="none" xmlns="http://www.w3.org/2000/svg">
<g clip-path="url(#clip0)">
<path d="M20.1757 15.2825H17.2536C16.5231 15.3637 15.8738 15.039 15.3868 14.552C14.9809 14.1461 14.6562 13.7403 14.2504 13.2533C14.088 13.0909 13.9257 12.9286 13.6822 12.7663C13.2764 12.5227 12.9517 12.6039 12.7082 13.0098C12.4647 13.4156 12.4647 13.9026 12.3835 14.3896C12.3835 15.039 12.14 15.2825 11.4095 15.2825C9.94841 15.3637 8.56856 15.1202 7.26985 14.3896C6.13349 13.7403 5.24063 12.7663 4.42894 11.7922C2.96789 9.763 1.75036 7.49027 0.776331 5.21754C0.532823 4.73052 0.695142 4.40585 1.26332 4.40585C2.23735 4.40585 3.13021 4.40585 4.10424 4.40585C4.51009 4.40585 4.75359 4.64935 4.91593 4.97403C5.40295 6.27273 6.05232 7.4091 6.86401 8.54546C7.02635 8.78897 7.26985 9.11365 7.59452 9.35716C7.9192 9.60066 8.1627 9.51949 8.32504 9.11365C8.40621 8.87014 8.48739 8.62663 8.48739 8.38313C8.56856 7.49027 8.56855 6.59741 8.40621 5.78572C8.32505 5.21754 8.00036 4.89286 7.43218 4.81169C7.18867 4.73052 7.18866 4.64935 7.351 4.48701C7.59451 4.24351 7.83802 4 8.24387 4H11.4906C11.9776 4.08117 12.14 4.32468 12.2211 4.81169V8.4643C12.2211 8.62663 12.3023 9.27599 12.7082 9.43832C12.9517 9.51949 13.1952 9.27599 13.3575 9.11365C14.1692 8.30196 14.7374 7.24676 15.2244 6.27273C15.4679 5.78572 15.6303 5.37987 15.7926 4.89286C15.9549 4.56818 16.1984 4.40585 16.5231 4.40585H19.6887C19.7699 4.40585 19.851 4.40585 19.9322 4.40585C20.5004 4.48701 20.5816 4.73052 20.4192 5.21754C20.1757 6.02923 19.6887 6.67858 19.1205 7.4091C18.5523 8.13962 17.9841 8.87014 17.4971 9.60066C17.0913 10.25 17.0913 10.6559 17.6595 11.224C18.3088 11.8734 19.0393 12.4416 19.6075 13.1721C19.851 13.4968 20.0945 13.8215 20.338 14.2273C20.9062 14.6331 20.6627 15.2825 20.1757 15.2825Z" fill="#4891FF"/>
</g>
<defs>
<clipPath id="clip0">
<rect x="0.666748" width="20" height="20" fill="white"/>
</clipPath>
</defs>
</svg>
