<svg width="21" height="20" viewBox="0 0 21 20" fill="none" xmlns="http://www.w3.org/2000/svg">
<g clip-path="url(#clip0)">
<path d="M20.4763 5.33333C20.4763 5.33333 20.2858 3.80953 19.7144 3.14286C18.9525 2.28572 18.0953 2.28571 17.7144 2.28571C14.8572 2.09524 10.6667 2 10.6667 2C10.6667 2 9.61912 2 8.19055 2.09524C6.76198 2.09524 5.04771 2.19048 3.61913 2.28571C3.23818 2.28571 2.38103 2.38095 1.61913 3.14286C1.0477 3.80953 0.857236 5.33333 0.857236 5.33333C0.857236 5.33333 0.666748 7.14286 0.666748 8.85715V10.4762C0.666748 12.1905 0.857236 14 0.857236 14C0.857236 14 1.0477 15.5238 1.61913 16.1905C2.38103 17.0476 3.42864 17.0476 3.80959 17.1429C5.42864 17.2381 10.6667 17.2381 10.6667 17.2381C10.6667 17.2381 14.8572 17.2381 17.7144 16.9524C18.0953 16.9524 18.9525 16.8571 19.7144 16.0952C20.2858 15.4286 20.4763 13.9048 20.4763 13.9048C20.4763 13.9048 20.6667 12.1905 20.6667 10.381V8.76191C20.6667 7.04762 20.4763 5.33333 20.4763 5.33333ZM8.2858 13.6191V6.09524L14.8572 9.90476L8.2858 13.6191Z" fill="#4891FF"/>
</g>
<defs>
<clipPath id="clip0">
<rect x="0.666748" width="20" height="20" fill="white"/>
</clipPath>
</defs>
</svg>
